<svg id="Layer_1" data-name="Layer 1" xmlns="http://www.w3.org/2000/svg" viewBox="0 0 500 131"><defs><style>.cls-1{fill:#1c6e8c;}.cls-2{fill:#274156;}.cls-3{fill:#161616;}.cls-4{fill:#5b5b5b;}</style></defs><title>Logo-WT</title><polygon class="cls-1" points="87.11 19.19 76.44 37.67 62.13 62.48 47.82 37.67 47.71 37.47 58.25 19.19 87.11 19.19"/><polygon class="cls-2" points="90.76 112.09 61.79 112.09 47.65 87.58 47.92 87.12 76.35 87.12 76.37 87.16 90.76 112.09"/><polygon class="cls-2" points="62.13 62.48 62.04 62.64 33.26 62.64 33.22 62.58 18.85 37.67 47.82 37.67 62.13 62.48"/><polygon class="cls-1" points="143.66 19.19 133.25 37.67 119.17 62.64 105.38 87.12 91.3 112.09 90.76 112.09 76.37 87.16 76.39 87.12 90.51 62.64 104.92 37.67 115.58 19.19 143.66 19.19"/><path class="cls-3" d="M158.79,29.46h8.61a2.58,2.58,0,0,1,1.54.42,2.06,2.06,0,0,1,1,1.33c.16.61.36,1.22.58,1.83.39,1.05.73,2.11,1,3.16s.65,2.14,1,3.25q1.67,5.16,3.29,10.31c1.08,3.45,2.17,6.88,3.28,10.32.28,1,.57,1.89.88,2.83s.59,1.89.87,2.83c.17.5.33,1,.5,1.5a5,5,0,0,0,.67,1.33.38.38,0,0,0,.2.21.91.91,0,0,1,.3.21,1.16,1.16,0,0,0,1.2-.79c.2-.53.38-1,.54-1.46a35.66,35.66,0,0,0,1.17-3.58c.33-1.22.72-2.47,1.16-3.74q1.83-5.49,3.54-11t3.54-10.94c.27-.88.55-1.76.83-2.62s.55-1.73.83-2.62a9.28,9.28,0,0,0,.54-1.33,1.89,1.89,0,0,1,.88-1.08,2.25,2.25,0,0,1,1.37-.42h8.86a2.36,2.36,0,0,1,1.33.33,1.23,1.23,0,0,1,.59,1.54c-.17.75-.34,1.38-.5,1.87q-.75,1.92-1.38,4c-.41,1.36-.84,2.7-1.29,4a5.31,5.31,0,0,0-.37,1c-.08.34-.18.67-.29,1-.45,1.17-.85,2.36-1.21,3.58s-.76,2.44-1.21,3.66L198.23,64q-2.25,6.8-4.49,13.53c-.5,1.27-1,2.56-1.33,3.87s-.81,2.59-1.25,3.86c-.28.78-.56,1.49-.83,2.13a2.36,2.36,0,0,1-1.67,1.29,5.07,5.07,0,0,1-1.5.12c-.55,0-1.08,0-1.58,0h-6c-.61,0-1.26,0-2,0a3,3,0,0,1-1.7-.37,2.47,2.47,0,0,1-1.21-1.54c-.19-.7-.4-1.38-.62-2-.39-1.17-.76-2.34-1.12-3.54s-.74-2.37-1.13-3.53q-1.83-5.25-3.49-10.57t-3.5-10.65q-.75-2.41-1.45-4.79T161.87,47a7.34,7.34,0,0,1-.5-1.5,8.8,8.8,0,0,0-.5-1.5q-.75-2.33-1.46-4.62t-1.54-4.61a13.64,13.64,0,0,0-.41-1.46c-.17-.47-.34-1-.5-1.46a7.55,7.55,0,0,1-.13-.83,1.25,1.25,0,0,1,.13-.75,1.35,1.35,0,0,1,1.08-.75.57.57,0,0,1,.37,0A.55.55,0,0,0,158.79,29.46Z"/><path class="cls-3" d="M223.53,30a3,3,0,0,1,.58,2v4.83a1.83,1.83,0,0,1-.58,1.58,2.38,2.38,0,0,1-1.29.5c-.53,0-1.1.08-1.71.08h-4.66a15.38,15.38,0,0,1-1.62-.08,2.31,2.31,0,0,1-1.21-.5,1.49,1.49,0,0,1-.45-1,11.77,11.77,0,0,1-.17-1.58,17.81,17.81,0,0,1,0-1.79c0-.61,0-1.14,0-1.58s0-.85,0-1.21a2.21,2.21,0,0,1,.29-.95,1.12,1.12,0,0,1,.46-.5l.63-.34a2.33,2.33,0,0,0,.41,0,2.43,2.43,0,0,1,.42,0h6.07a15.75,15.75,0,0,1,1.58.08A2,2,0,0,1,223.53,30Zm.58,54.18c0,1.11,0,2-.08,2.83a1.8,1.8,0,0,1-1.5,1.58,2.73,2.73,0,0,1-1.08.12c-.39,0-.81,0-1.25,0h-4.66a13.83,13.83,0,0,1-1.46-.08,1.5,1.5,0,0,1-1-.5,2.39,2.39,0,0,1-.54-1.46c0-.58,0-1.21,0-1.87V48a1.82,1.82,0,0,1,1.75-2.08.74.74,0,0,1,.46,0,.78.78,0,0,0,.45,0h4.16c.34,0,.71,0,1.13,0a4.23,4.23,0,0,1,1,0h.66a5.84,5.84,0,0,0,.92.25,1,1,0,0,1,.66.5,2,2,0,0,1,.38,1.17c0,.5,0,1,0,1.58Z"/><path class="cls-3" d="M274.12,46.35a1.69,1.69,0,0,1,.63,1.38c0,.63,0,1.29,0,2V85.21c0,.45,0,.88,0,1.29s0,.85,0,1.29-.1.85-.13,1.21-.07.76-.12,1.21c-.23.77-.41,1.51-.55,2.2a8.31,8.31,0,0,1-.62,2,16.14,16.14,0,0,1-3.62,5.24A17.75,17.75,0,0,1,264.3,103a12.27,12.27,0,0,1-1.83.67l-1.91.5a11.73,11.73,0,0,1-1.83.33c-.61.06-1.22.14-1.83.25a4.92,4.92,0,0,0-.67,0,5.66,5.66,0,0,1-.75,0,2,2,0,0,1-.75,0,2.92,2.92,0,0,0-.83,0,6.28,6.28,0,0,1-1.08.08,6.11,6.11,0,0,1-1.08-.08H251a2.57,2.57,0,0,1-.67-.09,5.65,5.65,0,0,0-1.37-.16,4.74,4.74,0,0,1-1.29-.17.88.88,0,0,0-.42-.08.86.86,0,0,1-.41-.09c-.56-.11-1.1-.23-1.63-.37a10.29,10.29,0,0,1-1.53-.54,22.92,22.92,0,0,1-5.66-3.37,11.68,11.68,0,0,1-3.66-5.45.86.86,0,0,1-.17-.5,1,1,0,0,0-.08-.42,1.81,1.81,0,0,1,.2-1.62,2.22,2.22,0,0,1,1.29-.71,8,8,0,0,1,1.88-.12c.69,0,1.34,0,1.95,0h2.83a4.87,4.87,0,0,1,.71,0,4.78,4.78,0,0,0,.71,0,2.64,2.64,0,0,1,1.66.88c.22.36.55.84,1,1.45a6.86,6.86,0,0,0,.75.83.9.9,0,0,0,.16.25,1.08,1.08,0,0,1,.17.25,11.51,11.51,0,0,0,1.42.92,10.63,10.63,0,0,0,1.66.75,6,6,0,0,0,1.16.21,6.6,6.6,0,0,1,1.25.2h.92a3.79,3.79,0,0,0,1.5,0,8.74,8.74,0,0,0,1.41-.3,2,2,0,0,1,.71-.16,1.42,1.42,0,0,0,.62-.17,8.29,8.29,0,0,0,2.91-2,10.51,10.51,0,0,0,1.92-2.91,7,7,0,0,0,.25-1,9.11,9.11,0,0,1,.25-1.08,9.93,9.93,0,0,0,.21-1.62c0-.58,0-1.18,0-1.79a5.12,5.12,0,0,1,0-.67,1.36,1.36,0,0,0,0-.58,1.51,1.51,0,0,1-.13-.75,1.11,1.11,0,0,0-.12-.66.67.67,0,0,0-.21-.25,2.64,2.64,0,0,1-.29-.25,1.45,1.45,0,0,0-1.21.33c-.3.28-.6.53-.87.75q-.75.58-1.5,1.08a12.38,12.38,0,0,1-1.66.92,11.3,11.3,0,0,1-1.84.66c-.61.17-1.24.34-1.91.5-.33.06-.65.1-1,.13s-.59.07-.87.12a11.1,11.1,0,0,1-2.66,0h-.67a1.85,1.85,0,0,0-.54-.08,2.85,2.85,0,0,1-.62-.08c-.78-.17-1.53-.32-2.25-.46a8.83,8.83,0,0,1-2-.63,14.62,14.62,0,0,1-5.78-3.95,22.17,22.17,0,0,1-3.7-6.12,7.43,7.43,0,0,1-.59-1.91,12.19,12.19,0,0,0-.5-2,2,2,0,0,0-.08-.66,6.09,6.09,0,0,1-.17-1.46,6.11,6.11,0,0,0-.16-1.46,3.65,3.65,0,0,1-.08-.79v-.79a5,5,0,0,1-.09-1,5.09,5.09,0,0,1,.09-1v-.83a2.1,2.1,0,0,0,0-.66,1.13,1.13,0,0,1,.12-.67,16.37,16.37,0,0,0,.25-1.62c.06-.53.14-1.07.25-1.63.33-1.1.68-2.16,1-3.16a15.09,15.09,0,0,1,1.37-2.83,10.48,10.48,0,0,1,1-1.54l1.12-1.45a4.07,4.07,0,0,1,.71-.84c.31-.27.6-.52.88-.74l.49-.5q.42-.33.84-.63c.27-.19.55-.37.83-.54a17.08,17.08,0,0,1,2.25-1.16,21.37,21.37,0,0,1,2.58-.92,4.59,4.59,0,0,1,1.37-.29,7.67,7.67,0,0,0,1.37-.21,2.79,2.79,0,0,1,.92,0c.38.06.63,0,.75-.08a15.93,15.93,0,0,1,4.78.5A13.45,13.45,0,0,1,259,46.85c.16.11.33.24.5.38s.36.29.58.45.64.56.91.84a4.93,4.93,0,0,0,1,.75,3,3,0,0,0,.46.16.43.43,0,0,0,.46-.08.77.77,0,0,0,.5-.58,4.46,4.46,0,0,1,.25-.84,6.82,6.82,0,0,0,.29-.87,1.67,1.67,0,0,1,.46-.79,2.3,2.3,0,0,1,1.2-.37c.47,0,1,0,1.46,0h4.24c.61,0,1.15,0,1.63,0A2,2,0,0,1,274.12,46.35Zm-11.4,25.72a9.63,9.63,0,0,0,.58-1.92,16.82,16.82,0,0,0,.34-2.45c.05-.86.07-1.71,0-2.54a11.49,11.49,0,0,0-.29-2.25.88.88,0,0,1-.13-.54,1.17,1.17,0,0,0,0-.54l-.33-1.16a6.16,6.16,0,0,0-.42-1.09,9.86,9.86,0,0,0-3.33-4.49,10.66,10.66,0,0,0-6.32-1.58.5.5,0,0,1-.46.12,1.22,1.22,0,0,0-.54,0l-1.08.29c-.33.08-.67.18-1,.29A7.13,7.13,0,0,0,246.41,57a18.44,18.44,0,0,0-1.91,4.08,2,2,0,0,0-.17.67,4,4,0,0,1-.08.66,12.59,12.59,0,0,0-.33,2.67,10.86,10.86,0,0,0,.16,2.83v.83a10.45,10.45,0,0,1,.25,1.29c.06.41.14.84.25,1.29a16.61,16.61,0,0,0,1.83,3.78,7.87,7.87,0,0,0,3,2.63,14.19,14.19,0,0,0,2.33.83,4.23,4.23,0,0,1,.91.08l.5,0a.85.85,0,0,0,.5,0h.83c.5-.11,1-.19,1.42-.25a3.81,3.81,0,0,0,1.33-.42,8.45,8.45,0,0,0,3.37-2.33A12.41,12.41,0,0,0,262.72,72.07Z"/><path class="cls-3" d="M295.84,30a3,3,0,0,1,.58,2v4.83a1.83,1.83,0,0,1-.58,1.58,2.34,2.34,0,0,1-1.29.5c-.53,0-1.09.08-1.7.08h-4.66a15.43,15.43,0,0,1-1.63-.08,2.24,2.24,0,0,1-1.2-.5,1.45,1.45,0,0,1-.46-1,11.77,11.77,0,0,1-.17-1.58,17.81,17.81,0,0,1,0-1.79c0-.61,0-1.14,0-1.58s0-.85,0-1.21a2.09,2.09,0,0,1,.3-.95,1.1,1.1,0,0,1,.45-.5l.63-.34a2.25,2.25,0,0,0,.41,0,2.43,2.43,0,0,1,.42,0h6.08c.55,0,1.08,0,1.58.08A1.94,1.94,0,0,1,295.84,30Zm.58,54.18c0,1.11,0,2-.08,2.83a1.8,1.8,0,0,1-1.5,1.58,2.73,2.73,0,0,1-1.08.12c-.39,0-.8,0-1.25,0h-4.66a13.64,13.64,0,0,1-1.45-.08,1.48,1.48,0,0,1-1-.5,2.34,2.34,0,0,1-.55-1.46c0-.58,0-1.21,0-1.87V48a2.28,2.28,0,0,1,.34-1.33,2.31,2.31,0,0,1,1.41-.75.74.74,0,0,1,.46,0,.83.83,0,0,0,.46,0h4.16c.33,0,.7,0,1.12,0a4.21,4.21,0,0,1,1,0h.67a5.47,5.47,0,0,0,.91.25,1,1,0,0,1,.67.5,2.06,2.06,0,0,1,.37,1.17c0,.5,0,1,0,1.58Z"/><path class="cls-1" d="M303.5,29.46h8.61a2.58,2.58,0,0,1,1.54.42,2.06,2.06,0,0,1,1,1.33c.16.61.36,1.22.58,1.83.39,1.05.73,2.11,1,3.16s.65,2.14,1,3.25q1.67,5.16,3.29,10.31c1.08,3.45,2.17,6.88,3.29,10.32.27,1,.56,1.89.87,2.83s.59,1.89.87,2.83c.17.5.34,1,.5,1.5a5,5,0,0,0,.67,1.33.36.36,0,0,0,.21.21,1,1,0,0,1,.29.21,1.16,1.16,0,0,0,1.2-.79c.2-.53.38-1,.54-1.46a35.66,35.66,0,0,0,1.17-3.58c.33-1.22.72-2.47,1.16-3.74q1.83-5.49,3.54-11t3.54-10.94c.27-.88.55-1.76.83-2.62s.55-1.73.83-2.62a9.28,9.28,0,0,0,.54-1.33,1.89,1.89,0,0,1,.88-1.08,2.25,2.25,0,0,1,1.37-.42h8.86a2.36,2.36,0,0,1,1.33.33,1.23,1.23,0,0,1,.59,1.54c-.17.75-.34,1.38-.5,1.87q-.75,1.92-1.38,4c-.41,1.36-.84,2.7-1.29,4a5.31,5.31,0,0,0-.37,1c-.08.34-.18.67-.29,1-.45,1.17-.85,2.36-1.21,3.58s-.76,2.44-1.21,3.66L342.94,64q-2.25,6.8-4.49,13.53c-.5,1.27-.95,2.56-1.33,3.87s-.81,2.59-1.25,3.86c-.28.78-.56,1.49-.83,2.13a2.36,2.36,0,0,1-1.67,1.29,5.07,5.07,0,0,1-1.5.12c-.55,0-1.08,0-1.58,0h-6c-.61,0-1.26,0-1.95,0a3,3,0,0,1-1.71-.37,2.47,2.47,0,0,1-1.21-1.54c-.19-.7-.4-1.38-.62-2-.39-1.17-.76-2.34-1.12-3.54s-.74-2.37-1.13-3.53q-1.83-5.25-3.49-10.57t-3.5-10.65c-.5-1.61-1-3.21-1.46-4.79s-1-3.15-1.53-4.7a7.34,7.34,0,0,1-.5-1.5,8.8,8.8,0,0,0-.5-1.5q-.75-2.33-1.46-4.62t-1.54-4.61a13.64,13.64,0,0,0-.41-1.46c-.17-.47-.34-1-.5-1.46a7.55,7.55,0,0,1-.13-.83,1.25,1.25,0,0,1,.13-.75,1.35,1.35,0,0,1,1.08-.75.57.57,0,0,1,.37,0A.55.55,0,0,0,303.5,29.46Z"/><path class="cls-1" d="M368.24,30a3,3,0,0,1,.58,2v4.83a1.86,1.86,0,0,1-.58,1.58A2.41,2.41,0,0,1,367,39c-.53,0-1.1.08-1.71.08h-4.66A15.38,15.38,0,0,1,359,39a2.31,2.31,0,0,1-1.21-.5,1.54,1.54,0,0,1-.46-1,13.8,13.8,0,0,1-.16-1.58,17.81,17.81,0,0,1,0-1.79c0-.61,0-1.14,0-1.58s0-.85,0-1.21a2.21,2.21,0,0,1,.29-.95,1.12,1.12,0,0,1,.46-.5l.63-.34a2.33,2.33,0,0,0,.41,0,2.43,2.43,0,0,1,.42,0h6.07a15.75,15.75,0,0,1,1.58.08A2,2,0,0,1,368.24,30Zm.58,54.18c0,1.11,0,2-.08,2.83a1.8,1.8,0,0,1-1.5,1.58,2.73,2.73,0,0,1-1.08.12c-.39,0-.81,0-1.25,0h-4.66a13.83,13.83,0,0,1-1.46-.08,1.5,1.5,0,0,1-1-.5,2.39,2.39,0,0,1-.54-1.46c0-.58,0-1.21,0-1.87V48a1.82,1.82,0,0,1,1.75-2.08.74.74,0,0,1,.46,0,.78.78,0,0,0,.45,0H364c.34,0,.71,0,1.13,0a4.23,4.23,0,0,1,1,0h.66a5.84,5.84,0,0,0,.92.25,1,1,0,0,1,.66.5,2.06,2.06,0,0,1,.38,1.17c0,.5,0,1,0,1.58Z"/><path class="cls-1" d="M418.92,66.91a3.44,3.44,0,0,1,0,1.5,1.59,1.59,0,0,1-.59,1.08,2.51,2.51,0,0,1-1.2.45,14.63,14.63,0,0,1-1.75.17c-.64,0-1.28,0-1.91,0s-1.21,0-1.71,0H390.33a2.42,2.42,0,0,0-1,.17,1.81,1.81,0,0,0-.83.66,1.77,1.77,0,0,0-.33.63,1.55,1.55,0,0,0-.08.87,4.37,4.37,0,0,1,.21,1,3.85,3.85,0,0,0,.2,1,11.88,11.88,0,0,0,1.63,3.29,8.86,8.86,0,0,0,2.62,2.29,3.7,3.7,0,0,0,1.37.54,10.78,10.78,0,0,1,1.46.37,9.7,9.7,0,0,0,1.83.25,7.39,7.39,0,0,0,2-.08h.75c.56-.11,1.07-.24,1.54-.37s.93-.3,1.38-.46,1.17-.64,1.87-1.08a6.22,6.22,0,0,0,1.54-1.33c.28-.39.57-.77.87-1.13a2.76,2.76,0,0,1,1.12-.79,4.4,4.4,0,0,1,2.13-.37c.86,0,1.65,0,2.37,0,.33,0,.68,0,1,0a2.12,2.12,0,0,1,1,.12h.83A3,3,0,0,1,417,76a.84.84,0,0,1,.38.75,2.38,2.38,0,0,1-.13,1,15.62,15.62,0,0,1-.91,2.08,17,17,0,0,1-1.17,1.83A16.8,16.8,0,0,1,411,86.05a21.92,21.92,0,0,1-5.82,2.83,7.28,7.28,0,0,1-1.83.41,12.73,12.73,0,0,0-1.92.34,2.37,2.37,0,0,1-.71,0,1.81,1.81,0,0,0-.7,0h-.92a2.1,2.1,0,0,1-1,.12c-.36,0-.68-.07-.95-.12a3.81,3.81,0,0,0-1.17,0,2.54,2.54,0,0,1-1.08-.08,2.27,2.27,0,0,0-.91-.17,2.47,2.47,0,0,1-.92-.17c-.61-.11-1.22-.23-1.83-.37a6.28,6.28,0,0,1-1.67-.63l-1.7-.62a7.6,7.6,0,0,1-1.46-.71,23.85,23.85,0,0,1-4.74-3.87A18.39,18.39,0,0,1,378.31,78a11.59,11.59,0,0,1-.67-1.87,15,15,0,0,0-.66-1.95,2.39,2.39,0,0,1-.09-.63,2.85,2.85,0,0,0-.08-.62,9.19,9.19,0,0,1-.42-2.16c-.05-.78-.11-1.56-.16-2.33,0-.28,0-.59,0-.92a3.08,3.08,0,0,1,0-.92v-1l.25-2c.22-.94.41-1.86.58-2.75a12.22,12.22,0,0,1,.75-2.49A21.76,21.76,0,0,1,390,46.1a10.06,10.06,0,0,1,2.37-.7c.8-.14,1.65-.32,2.54-.54a9.28,9.28,0,0,1,1.24-.09,11.19,11.19,0,0,0,1.25-.08,21,21,0,0,1,7.28,1,22.07,22.07,0,0,1,5.46,2.7c.49.33,1,.71,1.49,1.12a11.7,11.7,0,0,1,1.33,1.29,2,2,0,0,0,.67.67c.44.61.86,1.23,1.25,1.87s.8,1.29,1.25,2a11.21,11.21,0,0,1,.7,1.54c.2.52.41,1.09.63,1.7a13.9,13.9,0,0,1,.66,2.25c.17.78.36,1.55.59,2.33a4.89,4.89,0,0,1,.12,1.46,4.54,4.54,0,0,0,.13,1.45ZM406.43,62a2.1,2.1,0,0,0,.13-2c-.31-.81-.54-1.4-.71-1.79a8.65,8.65,0,0,0-3.08-3.45,10.32,10.32,0,0,0-5.32-1.29.7.7,0,0,1-.59.08,1,1,0,0,0-.58,0,3.27,3.27,0,0,1-.91.21,3,3,0,0,0-.92.21A8.87,8.87,0,0,0,389,58.5c-.11.22-.23.52-.37.88a4.81,4.81,0,0,0-.29,1.08,2.59,2.59,0,0,0,0,1,1.48,1.48,0,0,0,.54.83,3.4,3.4,0,0,0,1.83.42h11.48c.78,0,1.6,0,2.46,0A1.94,1.94,0,0,0,406.43,62Z"/><path class="cls-1" d="M424.66,45.77h6.16c.6,0,1.19,0,1.74,0a2.62,2.62,0,0,1,1.33.38,2.39,2.39,0,0,1,.8.87,5.24,5.24,0,0,1,.45,1.25c.11.47.22.94.34,1.41s.22.91.33,1.29a61.55,61.55,0,0,1,1.7,6c.47,2.06,1,4.08,1.63,6.08a7.57,7.57,0,0,1,.25,1,5.36,5.36,0,0,0,.25.95c.27.84.51,1.68.7,2.54s.43,1.71.71,2.54c.11.39.25.83.42,1.33a1.27,1.27,0,0,0,.91.92c.28.05.5-.1.67-.46a5.38,5.38,0,0,1,.41-.79,13.87,13.87,0,0,0,.63-2.42,14,14,0,0,1,.62-2.41,12.92,12.92,0,0,0,.42-1.54c.11-.52.22-1,.33-1.54.39-1.33.74-2.69,1-4.08s.65-2.74,1-4.07c.17-.61.31-1.2.42-1.75s.25-1.11.41-1.66c.22-.84.45-1.84.67-3a3.67,3.67,0,0,1,1.25-2.41,3,3,0,0,1,1.33-.38c.5,0,1.05,0,1.66,0h4.33c.67,0,1.28,0,1.83.08a3,3,0,0,1,1.42.5,1.8,1.8,0,0,1,.58.88c.11.36.22.7.33,1,.22.77.4,1.54.54,2.29a14.71,14.71,0,0,0,.63,2.28q1,3.25,1.7,6.66c.47,2.28,1,4.49,1.62,6.66a13.9,13.9,0,0,1,.54,2,12.65,12.65,0,0,0,.55,2A8.32,8.32,0,0,0,468,71.9a.45.45,0,0,0,.21.12.42.42,0,0,1,.21.21,1.06,1.06,0,0,0,1-.54c.13-.3.29-.65.45-1a20.1,20.1,0,0,0,.83-2.79c.23-1,.48-1.92.75-2.87q.25-.83.42-1.62t.42-1.62a42.16,42.16,0,0,0,1.49-5.24,48.81,48.81,0,0,1,1.42-5.16,22,22,0,0,0,.75-2.79A3.66,3.66,0,0,1,477,46.35a2.9,2.9,0,0,1,1.33-.5,16.7,16.7,0,0,1,1.67-.08h5.82a4,4,0,0,1,1.25.17A1.28,1.28,0,0,1,488,47a3.64,3.64,0,0,1-.25,1.66c-.38,1.28-.76,2.51-1.12,3.71s-.76,2.42-1.21,3.7q-2,6.07-3.87,12.19t-3.86,12.19c-.28.89-.55,1.76-.8,2.62s-.51,1.74-.79,2.62c-.22.62-.43,1.16-.62,1.63a1.92,1.92,0,0,1-1.12,1,4.31,4.31,0,0,1-2.17.33c-.88-.06-1.69-.08-2.41-.08-.89,0-2,0-3.33,0a6.48,6.48,0,0,1-2.83-.38,2.73,2.73,0,0,1-.75-1,7.45,7.45,0,0,1-.41-1.21,14.82,14.82,0,0,1-.63-2.29c-.14-.75-.32-1.51-.54-2.29a15.12,15.12,0,0,1-.41-1.54,11.45,11.45,0,0,0-.5-1.62q-.75-2.42-1.29-5a44.85,44.85,0,0,0-1.38-5.08,26.5,26.5,0,0,1-.83-3.16,5.06,5.06,0,0,0-1.33-2.66,1,1,0,0,0-1,.62c-.14.42-.29.85-.46,1.29a20.44,20.44,0,0,0-.87,3.33,21.56,21.56,0,0,1-.88,3.33q-.91,3-1.54,6.11c-.41,2.08-.93,4.12-1.53,6.12-.12.39-.23.83-.34,1.33s-.22,1-.33,1.42a5.83,5.83,0,0,1-.46,1.25,2.65,2.65,0,0,1-.71.91,1.93,1.93,0,0,1-1.16.37c-.5,0-1.06,0-1.66,0h-6.83l-.91-.17a2.76,2.76,0,0,1-.75-.25,2.25,2.25,0,0,1-.83-1.16c-.17-.5-.34-1-.5-1.5q-.42-1.24-.84-2.58c-.27-.89-.55-1.78-.83-2.67Q431,74.15,429.11,68t-3.87-12.32q-.58-1.66-1.08-3.24c-.34-1.06-.67-2.11-1-3.16-.11-.34-.24-.8-.38-1.38a1.74,1.74,0,0,1,.13-1.37,2.74,2.74,0,0,1,1.08-.67A1.69,1.69,0,0,0,424.66,45.77Z"/><path class="cls-4" d="M318.16,96.8a5,5,0,0,1,2.89.72A2.86,2.86,0,0,1,322.2,100a3.51,3.51,0,0,1-3.75,3.46,2.77,2.77,0,0,1-.46,0l-1.13-.3v2.58c0,1.41.11,1.45,1.65,1.62v.5h-4.79v-.5c1.42-.15,1.51-.25,1.51-1.65V99c0-1.49-.18-1.54-1.51-1.67v-.5Zm-1.3,5.67a2.89,2.89,0,0,0,1.17.21c1.06,0,2.44-.55,2.44-2.7a2.34,2.34,0,0,0-2.54-2.58,1.48,1.48,0,0,0-.9.19c-.13.12-.17.32-.17.74Z"/><path class="cls-4" d="M326.7,100.15a3.65,3.65,0,0,1,3.71,3.79,3.79,3.79,0,0,1-3.73,4,3.73,3.73,0,0,1-3.79-3.79A3.88,3.88,0,0,1,326.7,100.15Zm-.21.59c-1,0-1.86,1-1.86,2.93,0,2.14.9,3.7,2.23,3.7,1,0,1.81-.7,1.81-3C328.67,102.29,327.9,100.74,326.49,100.74Z"/><path class="cls-4" d="M342.77,100.83c-.86.14-1,.3-1.36,1.24-.51,1.35-1.31,3.64-2.05,5.89h-.55c-.67-1.76-1.36-3.49-2-5.18-.63,1.55-1.36,3.36-2,5.18h-.54c-.62-2-1.28-4-2-6-.3-.89-.44-1-1.27-1.1v-.48h3.65v.48c-1,.16-1.08.26-.85,1,.38,1.27.81,2.61,1.2,3.83.67-1.68,1.33-3.41,2-5.22h.5c.62,1.72,1.31,3.5,2,5.27.36-1,.9-2.64,1.19-3.79.21-.83.06-.94-1.09-1.08v-.48h3.2Z"/><path class="cls-4" d="M349.38,106.3a3.84,3.84,0,0,1-2.85,1.68,3.38,3.38,0,0,1-3.35-3.64,4.35,4.35,0,0,1,1.13-3,3.47,3.47,0,0,1,2.53-1.22,2.66,2.66,0,0,1,2.62,2.64c0,.33-.06.5-.31.57s-2.54.21-4.48.28c0,2.18,1.28,3.11,2.48,3.11a2.86,2.86,0,0,0,2-.85Zm-2.93-5.5c-.76,0-1.49.74-1.7,2.1.9,0,1.79,0,2.74-.05.29,0,.39-.08.39-.34A1.54,1.54,0,0,0,346.45,100.8Z"/><path class="cls-4" d="M354.46,107.78h-4v-.49c1-.11,1.13-.19,1.13-1.27v-3.55c0-1.06-.07-1.12-1-1.25v-.44a10.33,10.33,0,0,0,2.5-.68V102c.62-.93,1.31-1.8,2.13-1.8a.9.9,0,0,1,1,.84,1.22,1.22,0,0,1-.63,1,.33.33,0,0,1-.45,0,1.15,1.15,0,0,0-.77-.44c-.33,0-.92.47-1.28,1.29V106c0,1.1.09,1.18,1.37,1.29Z"/><path class="cls-4" d="M363,106.3a3.84,3.84,0,0,1-2.85,1.68,3.39,3.39,0,0,1-3.35-3.64,4.35,4.35,0,0,1,1.13-3,3.5,3.5,0,0,1,2.53-1.22,2.65,2.65,0,0,1,2.62,2.64c0,.33,0,.5-.31.57s-2.54.21-4.48.28c0,2.18,1.28,3.11,2.49,3.11a2.85,2.85,0,0,0,1.95-.85Zm-2.93-5.5c-.76,0-1.48.74-1.7,2.1.9,0,1.79,0,2.74-.05.29,0,.39-.08.39-.34A1.54,1.54,0,0,0,360.08,100.8Z"/><path class="cls-4" d="M372.56,107.35a20.14,20.14,0,0,0-2.74.63v-1.07l-1.05.61a2.69,2.69,0,0,1-1.24.46,3.53,3.53,0,0,1-3.2-3.72,4.27,4.27,0,0,1,4.42-4.11,3.51,3.51,0,0,1,1.07.16V97.92c0-1-.12-1.09-1.29-1.19v-.46a17.36,17.36,0,0,0,2.78-.58v10.1c0,.88.11,1,.74,1l.51,0Zm-2.74-5.67a2,2,0,0,0-1.68-.86c-.76,0-2.14.51-2.14,3,0,2.07,1.26,3.1,2.28,3.12a2.81,2.81,0,0,0,1.54-.55Z"/><path class="cls-4" d="M383.37,101.82c1.65.28,2.95,1.06,2.95,2.7a2.93,2.93,0,0,1-1.63,2.59,5.76,5.76,0,0,1-3,.67h-4.25v-.5c1.41-.14,1.5-.28,1.5-1.63V98.94c0-1.4-.16-1.52-1.5-1.64v-.5H382a4.57,4.57,0,0,1,2.63.59,2.21,2.21,0,0,1,1,1.89A2.71,2.71,0,0,1,383.37,101.82Zm-2-.21c1.81,0,2.54-.73,2.54-2.09a2,2,0,0,0-2.26-2.08,1.76,1.76,0,0,0-.92.16c-.15.1-.18.28-.18.79v3.22Zm-.82,4c0,1.22.33,1.53,1.48,1.53a2.31,2.31,0,0,0,2.46-2.47c0-1.71-1.14-2.45-3.17-2.45h-.77Z"/><path class="cls-4" d="M394.94,100.83c-.86.13-1,.27-1.47,1.22s-.88,2.11-2,4.94a45.7,45.7,0,0,0-1.69,4.66c-.11.35-.29.45-.53.45a1,1,0,0,1-1.08-.86c0-.23.11-.38.39-.6a3.68,3.68,0,0,0,1.18-1.24c.32-.64.56-1.2.64-1.42a1,1,0,0,0,0-.68c-.7-2-1.64-4.14-2.11-5.26-.36-.89-.52-1.09-1.43-1.21v-.48h3.56v.48c-.77.12-.86.28-.64.88l1.58,4.05c.45-1.12,1.11-2.94,1.46-4,.2-.63.06-.82-.9-1v-.48h3.09Z"/><path class="cls-4" d="M408.59,107.78v-.5c1.36-.14,1.42-.24,1.41-2V98.45c-1.36,3.06-3.43,7.59-4.13,9.33h-.46c-.67-1.76-2.45-6.13-3.72-9.17-.27,5.8-.29,7.08-.29,7.46,0,.94.43,1.09,1.6,1.21v.5h-4v-.5c1-.1,1.39-.3,1.52-1.23.1-.7.13-1.37.55-7.43.07-.86-.09-1.18-1.57-1.32v-.5h3.06l3.65,8.36,3.87-8.36h3.07v.5c-1.44.17-1.62.31-1.58,1.53l.08,6.45c.05,1.76.11,1.84,1.57,2v.5Z"/><path class="cls-4" d="M419.49,108a1.29,1.29,0,0,1-.84-.33,1.61,1.61,0,0,1-.41-.73,5.37,5.37,0,0,1-2,1.06,2.1,2.1,0,0,1-2.1-2.09,1.7,1.7,0,0,1,1.37-1.69,12.9,12.9,0,0,0,2.67-1.1v-.41c0-1.14-.55-1.8-1.4-1.8a1,1,0,0,0-.78.38,4,4,0,0,0-.44,1.1.51.51,0,0,1-.53.43.85.85,0,0,1-.79-.77c0-.25.21-.45.56-.7a7.35,7.35,0,0,1,2.48-1.18,2.45,2.45,0,0,1,1.48.46,2.33,2.33,0,0,1,.87,2v3.2c0,.78.28,1,.58,1a1.27,1.27,0,0,0,.59-.18l.18.49Zm-1.29-4.27c-.36.18-1.07.51-1.45.68-.62.28-1,.6-1,1.21a1.21,1.21,0,0,0,1.18,1.3,2,2,0,0,0,1.27-.55Z"/><path class="cls-4" d="M424.87,107.77a1.64,1.64,0,0,1-.71.21c-1.12,0-1.73-.65-1.73-2v-4.88h-1.15l-.08-.2.47-.52h.76V98.94c.36-.35.91-.81,1.28-1.16l.25,0c0,.66,0,1.63,0,2.52h1.88a.56.56,0,0,1-.1.72h-1.78v4.29c0,1.36.54,1.59,1,1.59a2.36,2.36,0,0,0,1-.25l.16.47Z"/><path class="cls-4" d="M432.18,108a1.29,1.29,0,0,1-.84-.33,1.61,1.61,0,0,1-.41-.73,5.37,5.37,0,0,1-2,1.06,2.09,2.09,0,0,1-2.1-2.09,1.7,1.7,0,0,1,1.36-1.69,12.8,12.8,0,0,0,2.68-1.1v-.41c0-1.14-.55-1.8-1.41-1.8a1,1,0,0,0-.77.38,3.42,3.42,0,0,0-.44,1.1.52.52,0,0,1-.54.43A.84.84,0,0,1,427,102c0-.25.21-.45.56-.7a7.35,7.35,0,0,1,2.48-1.18,2.4,2.4,0,0,1,1.47.46,2.32,2.32,0,0,1,.88,2v3.2c0,.78.28,1,.58,1a1.27,1.27,0,0,0,.59-.18l.17.49Zm-1.29-4.27c-.36.18-1.08.51-1.46.68-.62.28-1,.6-1,1.21a1.21,1.21,0,0,0,1.18,1.3,2,2,0,0,0,1.27-.55Z"/><path class="cls-4" d="M448.67,105a23.92,23.92,0,0,1-.93,2.58,15.34,15.34,0,0,1-3.1.41c-4.12,0-6.15-2.73-6.15-5.63,0-3.46,2.63-5.83,6.46-5.83a17.26,17.26,0,0,1,3.19.39c.07.76.19,1.82.32,2.65l-.55.11a2.92,2.92,0,0,0-1.63-2.2,4.72,4.72,0,0,0-1.72-.3c-2.73,0-4.15,2.06-4.15,4.82,0,3.23,1.67,5.32,4.33,5.32,1.67,0,2.53-.79,3.4-2.5Z"/><path class="cls-4" d="M455.51,108a1.29,1.29,0,0,1-.84-.33,1.52,1.52,0,0,1-.41-.73,5.4,5.4,0,0,1-2,1.06,2.1,2.1,0,0,1-2.1-2.09,1.71,1.71,0,0,1,1.37-1.69,13,13,0,0,0,2.68-1.1v-.41c0-1.14-.56-1.8-1.41-1.8a1,1,0,0,0-.77.38,3.64,3.64,0,0,0-.45,1.1.5.5,0,0,1-.53.43.85.85,0,0,1-.79-.77c0-.25.22-.45.57-.7a7.29,7.29,0,0,1,2.47-1.18,2.45,2.45,0,0,1,1.48.46,2.31,2.31,0,0,1,.87,2v3.2c0,.78.29,1,.59,1a1.34,1.34,0,0,0,.59-.18l.17.49Zm-1.29-4.27c-.36.18-1.08.51-1.46.68-.62.28-1,.6-1,1.21a1.21,1.21,0,0,0,1.18,1.3,2,2,0,0,0,1.27-.55Z"/><path class="cls-4" d="M467,107.78v-.49c.93-.11,1-.17,1-1.33v-2.83c0-1.24-.45-1.91-1.4-1.91a2.86,2.86,0,0,0-1.76.82c0,.2,0,.41,0,.72v3.3c0,1,.14,1.12,1,1.23v.49H462.3v-.49c1-.11,1.13-.17,1.13-1.26V103.1c0-1.24-.4-1.88-1.36-1.88a3.07,3.07,0,0,0-1.76.81v4c0,1.08.12,1.15,1,1.26v.49h-3.67v-.49c1.08-.11,1.17-.18,1.17-1.27v-3.51c0-1.06-.06-1.14-1-1.3v-.44a10.52,10.52,0,0,0,2.45-.67v1.35a13,13,0,0,1,1.21-.85,2.38,2.38,0,0,1,1.36-.45,2,2,0,0,1,1.85,1.36c.46-.36.88-.63,1.3-.92a2.52,2.52,0,0,1,1.34-.44c1.34,0,2.15.95,2.15,2.62V106c0,1.1.09,1.15,1,1.26v.49Z"/><path class="cls-4" d="M477,108a1.29,1.29,0,0,1-.84-.33,1.52,1.52,0,0,1-.41-.73,5.4,5.4,0,0,1-2,1.06,2.1,2.1,0,0,1-2.1-2.09A1.71,1.71,0,0,1,473,104.2a13.28,13.28,0,0,0,2.68-1.1v-.41c0-1.14-.56-1.8-1.41-1.8a1,1,0,0,0-.77.38,3.64,3.64,0,0,0-.45,1.1.5.5,0,0,1-.53.43.85.85,0,0,1-.79-.77c0-.25.22-.45.56-.7a7.35,7.35,0,0,1,2.48-1.18,2.45,2.45,0,0,1,1.48.46,2.33,2.33,0,0,1,.87,2v3.2c0,.78.29,1,.58,1a1.34,1.34,0,0,0,.6-.18l.17.49Zm-1.29-4.27c-.36.18-1.08.51-1.46.68-.62.28-1,.6-1,1.21a1.21,1.21,0,0,0,1.18,1.3,2,2,0,0,0,1.27-.55Z"/><path class="cls-4" d="M483.16,107.78h-4v-.49c1-.11,1.13-.19,1.13-1.27v-3.55c0-1.06-.06-1.12-1-1.25v-.44a10.2,10.2,0,0,0,2.5-.68V102c.62-.93,1.31-1.8,2.13-1.8a.9.9,0,0,1,1,.84,1.22,1.22,0,0,1-.63,1,.33.33,0,0,1-.45,0,1.15,1.15,0,0,0-.77-.44c-.33,0-.92.47-1.28,1.29V106c0,1.1.09,1.18,1.37,1.29Z"/></svg>